<svg width="455" height="493" viewBox="0 0 455 493" fill="none" xmlns="http://www.w3.org/2000/svg">
    <ellipse cx="290" cy="236" rx="46" ry="47" fill="url(#paint0_linear_280_954)"/>
    <ellipse cx="226" cy="47" rx="46" ry="47" fill="url(#paint1_linear_280_954)"/>
    <ellipse cx="160" cy="322" rx="46" ry="47" fill="url(#paint2_linear_280_954)"/>
    <path d="M122.501 69C170.465 63.9764 190.987 126.735 237.501 114C255.537 109.062 267.877 105.649 279.501 91C291.658 75.6779 293.955 61.9615 292.001 42.5C290.588 28.424 276.5 8.5 276.5 8.5C276.5 8.5 325 22.5 349.501 42.5C383.243 66.1043 400 86 422 120C427.5 128 443.5 153 453.001 201C457.5 243 453.5 266.5 441.001 307.5C424.5 346 409.432 368.083 379.5 398.5C355.724 422.661 335.5 432.5 310.5 449C285.5 465.5 243 484 228 493C219.5 477 217 472.5 217 446.5C217.5 404.5 224.5 398.5 237.501 370.5C255 341.5 272 327.5 297.001 307.5C323.5 290 343.5 280 362.501 256.5C376.192 237.261 382 224 386 201C387.499 173.5 383 152.5 372.501 130.5C366.157 125.137 362.5 121 354.001 120C330 118.5 316.306 132.403 291.5 137.5C266.694 142.597 255.5 144.5 227 148C198 153.5 179.786 155.177 154.5 171C114 190 78.5 248 77.0008 278.5C70 311 85.5 350 96 362.5C106.5 375 170.5 430.5 177.5 442.5C186 452 198.501 477 198.501 477C198.501 477 100.911 431.443 59.0008 380C38.082 354.323 26.5203 338.551 15.0008 307.5C2.23603 273.092 -1.30461 251.092 1.5008 214.5C4.66805 173.188 7.99578 144.986 35.5008 114C60.8939 85.3929 84.4575 72.9846 122.501 69Z" fill="url(#paint3_linear_280_954)"/>
    <defs>
        <linearGradient id="paint0_linear_280_954" x1="290" y1="189" x2="290" y2="283" gradientUnits="userSpaceOnUse">
            <stop stop-color="#3B82F6"/> <!-- blue-400 -->
            <stop offset="1" stop-color="#A855F7"/> <!-- purple-400 -->
        </linearGradient>
        <linearGradient id="paint1_linear_280_954" x1="226" y1="0" x2="226" y2="94" gradientUnits="userSpaceOnUse">
            <stop stop-color="#06B6D4"/> <!-- cyan-400 -->
            <stop offset="1" stop-color="#F472B6"/> <!-- pink-400 -->
        </linearGradient>
        <linearGradient id="paint2_linear_280_954" x1="160" y1="275" x2="160" y2="369" gradientUnits="userSpaceOnUse">
            <stop stop-color="#A855F7"/> <!-- purple-400 -->
            <stop offset="1" stop-color="#3B82F6"/> <!-- blue-400 -->
        </linearGradient>
        <linearGradient id="paint3_linear_280_954" x1="227.693" y1="8.5" x2="227.693" y2="493" gradientUnits="userSpaceOnUse">
            <stop offset="0.0" stop-color="#3B82F6"/>  <!-- blue-400 -->
            <stop offset="0.3" stop-color="#A855F7"/>  <!-- purple-400 -->
            <stop offset="0.6" stop-color="#06B6D4"/>  <!-- cyan-400 -->
            <stop offset="1" stop-color="#F472B6"/>    <!-- pink-400 -->
        </linearGradient>
    </defs>
</svg>
