<svg width="638" height="599" viewBox="0 0 638 599" fill="none" xmlns="http://www.w3.org/2000/svg">
<path d="M308.499 1.10011C281.799 5.50012 259.199 26.3001 252.499 52.5001C250.299 61.2001 250.499 76.7001 252.899 86.3001C263.399 126.9 309.199 148.4 347.799 130.9C384.899 114.1 398.999 69.4001 378.399 33.9001C373.899 26.2001 362.499 14.8001 354.799 10.2001C340.999 2.10011 323.399 -1.39989 308.499 1.10011Z" fill="black"/>
<path d="M90.8992 127.4C53.7992 140.5 42.7992 187.4 70.3992 214.5C103.699 247.2 158.999 224.7 158.999 178.5C158.999 162.9 154.299 151.4 143.499 140.4C132.599 129.3 122.199 125 106.599 125C99.6992 125 95.8992 125.6 90.8992 127.4Z" fill="black"/>
<path d="M514.9 127.4C489.3 136.4 474.6 162.7 480.1 189.2C483.8 207.1 498.8 223.1 516.9 228.4C525.3 230.9 539 230.5 547.3 227.6C578.1 216.7 591.9 182.5 577.1 153.2C571.1 141.3 558.9 130.9 546.2 127C536.9 124.1 523.6 124.3 514.9 127.4Z" fill="black"/>
<path d="M254 157.7C246.2 158.6 230 163.1 221.5 166.6C185.6 181.7 157.6 218.4 148.5 262.5C146.9 270.3 145.8 273.4 144.9 273.3C144.1 273.2 138.3 270.9 132 268.1C98.0996 253.3 65.6996 252.2 40.9996 265.1C21.6996 275.1 8.69961 291.7 2.89961 313.6C-0.000390589 324.6 -0.000390589 343.7 2.89961 357.6C10.4996 394.4 31.2996 435.3 61.4996 473C104.7 527 175.2 584.8 212 596.2C218.3 598.1 221.6 598.5 232.5 598.4C243.9 598.3 246.6 598 254 595.6C264.5 592.1 274.4 587.3 283.1 581.2C290.5 576.1 306.7 562 314.4 554.1L319.3 549.1L328.5 557.9C362.3 590.2 381.8 600.1 409 598.8C426.6 597.9 440.2 592.4 465 576.1C518.1 541.3 571.7 486.5 603.4 434.8C627.8 394.9 640.6 353.1 637 324.4C634.7 306.1 627.7 291.5 615.1 278.9C606 269.9 596.9 264.3 584 259.8C575 256.7 573.8 256.6 559.5 256.6C547.4 256.5 542.5 257 534 258.8C522.7 261.4 508 266.5 498.6 271.2C495.4 272.8 492.7 274 492.5 273.8C492.3 273.6 491.5 269.4 490.5 264.5C483.5 226.6 460.9 191.7 432 174.3C417.8 165.7 397 158.9 380.3 157.4C373.3 156.8 372.8 156.9 370.2 159.3C366 163.2 354.2 170.5 347.3 173.4C327.4 181.7 305.5 180.9 285.4 171C281 168.8 274.6 164.7 271.2 162C264.7 156.8 263.9 156.6 254 157.7ZM223 244.2C254 279.8 275.8 334.7 282 393C284.2 412.9 283.1 456.8 280.2 474.3L279.5 478.2L265.8 464.3C248.4 446.8 241.2 438.1 229 419.8C202 379.2 188.2 335 191.9 300.1C194.1 279.5 201.5 257.2 211 242.7C213.4 239 215.5 236 215.6 236C215.7 236 219 239.7 223 244.2ZM430.1 247.1C447.2 275.8 451.5 312.9 441.9 349.6C438.1 364.5 433.9 375.5 426.6 390.5C414.6 414.9 400.8 435 381.2 456.5C371.5 467.1 359.3 478.6 358.5 477.8C357.3 476.7 355 440.5 355 423.9C355 354.8 376.3 291 414.5 245.1L422.3 235.7L424.2 238C425.3 239.4 427.9 243.4 430.1 247.1ZM99.0996 308.4C110.2 311.2 120.3 315.7 132 322.9C147.2 332.4 147.5 332.7 149.5 342.7C157.5 383.5 181.7 431.1 214.5 471C227.2 486.4 248 507.5 262.9 520.1L268.4 524.7L264.7 529.7C259.6 536.7 252.2 543.4 245.9 546.7C241.1 549.2 239.5 549.5 231 549.5C222.5 549.5 220.7 549.1 213.7 546.1C185.7 534.1 141 498.4 110.7 464C76.8996 425.5 58.0996 391.9 50.9996 357C48.1996 343.5 48.4996 330.9 51.8996 323.5C58.8996 307.8 75.6996 302.4 99.0996 308.4ZM573.4 309.4C580.1 312.7 585.4 318.6 587.6 325.3C588.9 329.4 589.2 332.7 588.7 342.4C587.1 377 569 414.9 533.9 457.1C500.5 497.2 445.6 540.8 418.6 548.5C402.4 553.2 387.4 546.9 375.3 530.6L370.9 524.6L374.2 522.1C382 516 397.9 500.9 408.3 489.6C433.1 462.7 449.9 439 465 409.6C477.3 385.9 486.5 360.1 490.1 340.2L491.4 332.8L498.4 327.8C519.8 312.9 539.5 305.7 558.2 306.4C566.3 306.6 568.8 307.1 573.4 309.4Z" fill="black"/>
</svg>
